<svg width="521px" height="334px" viewBox="0 0 521 334" version="1.1" xmlns="http://www.w3.org/2000/svg" xmlns:xlink="http://www.w3.org/1999/xlink">
    <g stroke="none" stroke-width="1" fill="none" fill-rule="evenodd">
        <polygon id="Shape" fill="#2BA5F7" fill-rule="nonzero" points="42.621 182.128 42.621 195.610227 42.621 203.4698 42.621 232.212 479.365 232.212 479.365 203.4698 479.365 195.610227 479.365 182.128"></polygon>
        <rect id="Rectangle-path" fill="#F7B239" fill-rule="nonzero" x="42.621" y="226.747" width="436.744" height="63.269"></rect>
        <rect id="Rectangle-path" fill="#F7B239" fill-rule="nonzero" x="43" y="119" width="436.744" height="63.269"></rect>
        <rect id="Rectangle-path-Copy" fill="#E09B2D" fill-rule="nonzero" x="43" y="119" width="87.977" height="63.269"></rect>
        <path d="M299,50 C299,29.5654643 281.98682,13 261,13 C240.01318,13 223,29.5654643 223,50 C252.117188,50 274.90625,50 299,50 Z" id="Oval" fill="#F56F4B"></path>
        <rect id="Rectangle-path" fill="#2197D8" fill-rule="nonzero" x="42.621" y="182.128" width="87.977" height="44"></rect>
        <path d="M130.612,121.775 C131.564,121.789 132.517,121.843 133.469,121.965 C132.517,121.857 131.565,121.802 130.612,121.775 Z" id="Shape" fill="#F7B239" fill-rule="nonzero"></path>
        <path d="M509.958,290 L498.066,307.030749 C492.583,314.889711 479.753,320.009781 465.534,320.009781 L56.41,320.009781 C42.192,320.009781 29.361,314.889711 23.878,307.030749 L12,290 L42.6,290 L479.344,290 L509.958,290 Z" id="Shape" fill="#E6E6E6" fill-rule="nonzero"></path>
        <path d="M261,50.96875 C261,32.4853148 261,19.8290648 261,13 C240.01318,13 223,29.5654643 223,50 C235.666667,50.6458333 248.333333,50.96875 261,50.96875 Z" id="Oval" fill="#D45F40"></path>
        <path d="M149.847656,318.900391 L56.41,320.009781 C42.192,320.009781 29.361,314.889711 23.878,307.030749 L12,290 L149.847656,288.890609 L149.847656,318.900391 Z" id="Shape" fill="#CCCCCC" fill-rule="nonzero"></path>
        <rect id="Rectangle-path" fill="#E09B2D" fill-rule="nonzero" x="42.621" y="226.747" width="87.977" height="63.269"></rect>
        <path id="topping" d="M493.835752,106.507042 C497.691214,128.020893 490.32073,143.645828 471.724298,153.381849 C458.571334,167.627384 438.149232,167.627384 424.98128,153.381849 C411.813328,139.102821 391.376238,139.102821 378.223274,153.348356 C365.055322,167.611258 344.618232,167.611258 331.465268,153.365723 C318.297315,139.102821 297.860225,139.102821 284.707261,153.365723 C278.123285,160.48849 269.718278,164.049874 261.31327,164.049874 C252.923251,164.049874 244.533231,160.48849 237.949255,153.365723 C231.365279,146.242955 222.975259,142.681571 214.570252,142.681571 C206.165244,142.681571 197.775225,146.242955 191.191249,153.365723 C184.607273,160.48849 176.217253,164.049874 167.827234,164.049874 C159.422226,164.049874 151.017219,160.48849 144.448231,153.365723 C137.864255,146.242955 129.459247,142.681571 121.05424,142.681571 C112.66422,142.681571 104.2742,146.242955 97.6902243,153.365723 C84.5372601,167.611258 64.1001702,167.611258 50.947206,153.365723 C32.7295423,141.45338 25.3590577,125.839608 28.8357521,106.524408 C34.0507938,77.5516079 59.2933324,50 88.8634142,50 L220.920845,50 L301.763506,50 L433.80702,50 C463.378172,49.9987595 488.052559,74.236265 493.835752,106.507042 Z" fill="#B27214" fill-rule="nonzero"></path>
        <path id="topping-dark" d="M129.861935,144.425934 C126.625968,143.263025 123.271336,142.681571 119.916705,142.681571 C111.629248,142.681571 103.341792,146.242955 96.8383013,153.365723 C83.8461245,167.611258 63.6588663,167.611258 50.6666896,153.365723 C32.6717264,141.45338 25.3913417,125.839608 28.8255356,106.524408 C33.9768263,77.5516079 58.9107894,50 88.1193938,50 C125.581863,50 153.678714,50 172.409949,50 C180.88873,50 153.367838,63.6350833 139.212026,85.6701667 C126.110545,106.064068 132.004189,145.195796 129.861935,144.425934 Z" id="Shape" fill="#995C0D" fill-rule="nonzero"></path>
    </g>
</svg>
